<?xml version="1.0" standalone="no"?><!DOCTYPE svg PUBLIC "-//W3C//DTD SVG 1.1//EN" "http://www.w3.org/Graphics/SVG/1.1/DTD/svg11.dtd"><svg t="1499654936647" class="icon" style="" viewBox="0 0 1024 1024" version="1.1" xmlns="http://www.w3.org/2000/svg" p-id="3863" xmlns:xlink="http://www.w3.org/1999/xlink" width="200" height="200"><defs><style type="text/css"></style></defs><path d="M883.513874 822.575478 140.489196 822.575478c-10.087753 0-19.378349-5.471618-24.26566-14.300704-4.888334-8.829086-4.590552-19.60757 0.75827-28.138874l128.251989-204.734918-0.013303-249.807463c0-143.019321 116.362194-259.374352 259.387655-259.374352 143.026484 0 259.387655 116.356055 259.387655 259.374352l0 249.062496 142.281517 204.341968c5.904477 8.476045 6.594185 19.526729 1.813299 28.680203C903.310755 816.833707 893.845173 822.575478 883.513874 822.575478zM190.592314 767.109212l639.810944 0L713.499735 599.220481c-3.236718-4.65809-4.970198-10.18292-4.970198-15.842827L708.529537 325.59352c0-112.435769-91.473341-203.908086-203.921389-203.908086s-203.922413 91.473341-203.922413 203.908086l0.014326 257.784134c0 5.199419-1.462305 10.304693-4.225231 14.705933L190.592314 767.109212z" p-id="3864" fill="#e6e6e6"></path><path d="M501.587348 957.773669c-89.834005 0-162.931836-73.083505-162.931836-162.931836 0-15.301498 12.417821-27.733645 27.733645-27.733645 15.314801 0 27.732621 12.431124 27.732621 27.733645 0 59.257615 48.207955 107.46557 107.46557 107.46557 59.257615 0 107.466594-48.206932 107.466594-107.46557 0-15.301498 12.417821-27.733645 27.733645-27.733645s27.733645 12.431124 27.733645 27.733645C664.520207 884.690164 591.422376 957.773669 501.587348 957.773669z" p-id="3865" fill="#e6e6e6"></path></svg>